<svg version="1.1" viewBox="0.0 0.0 1152.0 1152.0" fill="none" stroke="none" stroke-linecap="square" stroke-miterlimit="10" xmlns:xlink="http://www.w3.org/1999/xlink" xmlns="http://www.w3.org/2000/svg"><clipPath id="p.0"><path d="m0 0l1152.0 0l0 1152.0l-1152.0 0l0 -1152.0z" clip-rule="nonzero"/></clipPath><g clip-path="url(#p.0)"><path fill="#000000" fill-opacity="0.0" d="m0 0l1152.0 0l0 1152.0l-1152.0 0z" fill-rule="evenodd"/><path fill="#43a4ff" fill-opacity="0.5137" d="m436.03693 990.49896l0 -828.9979c0 -42.83274 17.015228 -83.911156 47.30255 -114.19847c30.287292 -30.287315 71.36572 -47.30255 114.19849 -47.30255l554.4674 0c0.0053710938 0 0.009643555 0.0042980663 0.009643555 0.0096l-0.009643555 1151.9904l0 0c0 0.0052490234 -0.004272461 0.009643555 -0.009521484 0.009643555l-554.4579 -0.009643555l0 0c-89.19458 0 -161.50104 -72.30652 -161.50104 -161.50104z" fill-rule="evenodd"/><path fill="#000a1e" d="m-1343.5685 115.2l1155.4646 0l0 1152.0l-1155.4646 0z" fill-rule="evenodd"/><path fill="#43a4ff" fill-opacity="0.514" d="m-751.3523 318.47983l0 0c0 -37.741302 30.595337 -68.336685 68.33667 -68.336685l339.04315 0c18.124023 0 35.505737 7.1997223 48.32135 20.015335c12.815613 12.815613 20.01535 30.197327 20.01535 48.32135l0 511.57858c0 37.741333 -30.595398 68.33667 -68.3367 68.33667l-339.04315 0c-37.741333 0 -68.33667 -30.595337 -68.33667 -68.33667z" fill-rule="evenodd"/><path fill="#43a4ff" fill-opacity="0.514" d="m-1015.46466 317.75873l0 0c0 -37.741302 30.595337 -68.336685 68.33667 -68.336685l339.04315 0c18.124023 0 35.505737 7.199753 48.32135 20.015366c12.815613 12.815613 20.01532 30.197296 20.01532 48.32132l0 511.5786c0 37.741272 -30.595337 68.33667 -68.33667 68.33667l-339.04315 0c-37.741333 0 -68.33667 -30.595398 -68.33667 -68.33667z" fill-rule="evenodd"/><path fill="#43a4ff" fill-opacity="0.514" d="m-880.9386 317.75873l0 0c0 -37.741302 30.595337 -68.336685 68.33667 -68.336685l339.04315 0c18.124023 0 35.505737 7.199753 48.32135 20.015366c12.815613 12.815613 20.01535 30.197296 20.01535 48.32132l0 511.5786c0 37.741272 -30.595398 68.33667 -68.3367 68.33667l-339.04315 0c-37.741333 0 -68.33667 -30.595398 -68.33667 -68.33667z" fill-rule="evenodd"/><path fill="#43a4ff" fill-opacity="0.514" d="m583.12744 1096.9198l0 0c-49.990234 0 -90.51535 -40.525146 -90.51535 -90.51532l0 -860.79614c0 -24.006157 9.536438 -47.029083 26.511322 -64.004c16.974915 -16.974922 39.997864 -26.511333 64.00403 -26.511333l449.0796 0c49.990234 0 90.51526 40.525097 90.51526 90.515335l0 860.79614c0 49.990173 -40.525024 90.51532 -90.51526 90.51532z" fill-rule="evenodd"/><path fill="#ffffff" d="m615.7875 310.55646l0 0c0 -26.901062 21.807617 -48.70865 48.70868 -48.70865l286.3307 0c12.918335 0 25.307617 5.131775 34.44226 14.266418c9.134644 9.134644 14.266418 21.523895 14.266418 34.44223l0 0l0 0c0 26.901062 -21.807617 48.70865 -48.70868 48.70865l-286.3307 0l0 0c-26.901062 0 -48.70868 -21.807587 -48.70868 -48.70865z" fill-rule="evenodd"/><path fill="#ffffff" d="m615.7875 538.458l0 0c0 -26.901062 21.807617 -48.70868 48.70868 -48.70868l286.3307 0c12.918335 0 25.307617 5.1318054 34.44226 14.266449c9.134644 9.134613 14.266418 21.523895 14.266418 34.44223l0 0l0 0c0 26.901062 -21.807617 48.70862 -48.70868 48.70862l-286.3307 0l0 0c-26.901062 0 -48.70868 -21.807556 -48.70868 -48.70862z" fill-rule="evenodd"/><path fill="#ffffff" d="m615.7875 766.36444l0 0c0 -26.901062 21.807617 -48.70862 48.70868 -48.70862l286.3307 0c12.918335 0 25.307617 5.131775 34.44226 14.266418c9.134644 9.134644 14.266418 21.523865 14.266418 34.4422l0 0l0 0c0 26.901062 -21.807617 48.70868 -48.70868 48.70868l-286.3307 0l0 0c-26.901062 0 -48.70868 -21.807617 -48.70868 -48.70868z" fill-rule="evenodd"/><path fill="#43a4ff" fill-opacity="0.5137" d="m1660.7979 838.73785l0 -530.37866c0 -27.400726 -10.884888 -53.6792 -30.260132 -73.05446c-19.375244 -19.375244 -45.653687 -30.260147 -73.05444 -30.260147l-354.70117 0c-0.0032958984 0 -0.0061035156 0.002746582 -0.0061035156 0.006149292l0.0061035156 737.0017l0 0c0 0.0034179688 0.0028076172 0.006164551 0.006225586 0.006164551l354.69495 -0.006164551l0 0c57.059082 0 103.314575 -46.255554 103.314575 -103.31464z" fill-rule="evenodd"/><path fill="#43a4ff" fill-opacity="0.514" d="m1566.6997 906.81415l0 0c31.979248 0 57.903442 -25.924194 57.903442 -57.90338l0 -550.7129c0 -15.356934 -6.100464 -30.08487 -16.959473 -40.94388c-10.859009 -10.858994 -25.587036 -16.959503 -40.94397 -16.959503l-287.2798 0c-31.979126 0 -57.903442 25.924225 -57.903442 57.90338l0 550.7129c0 31.979187 25.924316 57.90338 57.903442 57.90338z" fill-rule="evenodd"/><path fill="#ffffff" d="m1545.8 403.7307l0 0c0 -17.212158 -13.953247 -31.165344 -31.165405 -31.165344l-183.14966 0c-8.265503 0 -16.192505 3.2834778 -22.037231 9.128113c-5.8446045 5.844635 -9.128052 13.7716675 -9.128052 22.037231l0 0l0 0c0 17.212158 13.953247 31.165344 31.165283 31.165344l183.14966 0l0 0c17.212158 0 31.165405 -13.953186 31.165405 -31.165344z" fill-rule="evenodd"/><path fill="#ffffff" d="m1545.8 549.5339l0 0c0 -17.212158 -13.953247 -31.165344 -31.165405 -31.165344l-183.14966 0c-8.265503 0 -16.192505 3.2834473 -22.037231 9.128113c-5.8446045 5.8446045 -9.128052 13.7716675 -9.128052 22.037231l0 0l0 0c0 17.212158 13.953247 31.165344 31.165283 31.165344l183.14966 0l0 0c17.212158 0 31.165405 -13.953186 31.165405 -31.165344z" fill-rule="evenodd"/><path fill="#ffffff" d="m1545.8 695.34015l0 0c0 -17.212158 -13.953247 -31.165344 -31.165405 -31.165344l-183.14966 0c-8.265503 0 -16.192505 3.2835083 -22.037231 9.128113c-5.8446045 5.8446655 -9.128052 13.7716675 -9.128052 22.037231l0 0l0 0c0 17.212158 13.953247 31.165344 31.165283 31.165344l183.14966 0l0 0c17.212158 0 31.165405 -13.953186 31.165405 -31.165344z" fill-rule="evenodd"/></g></svg>